<svg xmlns="http://www.w3.org/2000/svg" viewBox="0 0 512 512" style="enable-background:new 0 0 512 512" xml:space="preserve">
    <path style="fill:#666" d="M197.267 381.728H19.092V243.083h253.004"/>
    <path style="fill:#e6e6e6" d="M19.092 243.821h156.137v48.493H19.092z"/>
    <path style="fill:#f95428" d="M115.821 291.21v1.102H67.217v-1.102l-48.118-48.13h48.603zM213.026 291.21v1.102h-48.603v-1.102l-48.119-48.13h48.604z"/>
    <path style="fill:#9691c6" d="M336.745 314.909H232.806c-37.644 0-68.161 30.516-68.161 68.161v100.051h240.261v-100.05c.001-37.645-30.516-68.162-68.161-68.162z"/>
    <path style="fill:#7f7dad" d="M274.803 314.909h-41.997c-37.644 0-68.161 30.516-68.161 68.161v100.051h41.997v-100.05c.001-37.645 30.517-68.162 68.161-68.162z"/>
    <path style="fill:#e0b394" d="M332.736 292.748v61.229c0 26.485-21.475 47.96-47.96 47.96-26.494 0-47.96-21.475-47.96-47.96v-61.229h95.92zM168.593 221.748c-13.666-.606-24.544-11.881-24.544-25.69 0-14.195 11.506-25.712 25.712-25.712 1.278 0 2.535.088 3.769.276M400.941 221.748c13.666-.606 24.555-11.881 24.555-25.69 0-14.195-11.517-25.712-25.723-25.712a26.4 26.4 0 0 0-3.769.276"/>
    <path style="fill:#f7cba4" d="m247.575 332.89-45.241-32.87a83.416 83.416 0 0 1-33.998-75.507l7.847-81.202c5.405-55.927 52.402-98.602 108.589-98.602s103.184 42.675 108.589 98.602l7.847 81.202a83.417 83.417 0 0 1-33.998 75.507l-45.241 32.87c-22.179 16.116-52.214 16.116-74.394 0z"/>
    <path style="fill:#e0b394" d="M196.49 240.517a50.36 50.36 0 0 0 11.715 35.378l47.284 58.104a37.65 37.65 0 0 0 8.299 7.384 62.898 62.898 0 0 1-16.212-8.497l-45.242-32.865a83.406 83.406 0 0 1-33.989-75.506l7.836-81.204c5.356-55.381 51.491-97.769 106.96-98.573-34.166.827-72.853 33.03-74.87 67.328L196.49 240.517z"/>
    <circle style="fill:#c0e7f9" cx="234.608" cy="206.095" r="31.464"/>
    <circle style="fill:#c0e7f9" cx="333.082" cy="206.095" r="31.464"/>
    <path style="fill:#f9c573" d="M443.479 152.092s-38.574-4.408-47.567 18.251c-42.511 0-112.273-58.798-113.32-60.098-.011-.011-.011-.022-.022-.033 0 27.553 5.901 52.511 5.901 52.511-40.778 0-59.904-45.899-59.904-45.899s-24.226 46.873-53.662 46.873-47.733-22.626-47.733-22.626c61.167-9.368 68.662-50.455 68.662-50.455-19.254-8.464-43.798 8.145-44.404 8.563 29.757-50.686 82.659-41.991 82.659-41.991 0-22.164-33.074-36.249-33.074-36.249 55.106-8.817 83.761 23.773 83.761 23.773s-2.204-22.671 23.144-36.998c0 0-2.336 20.246 9.853 42.09 0 0 16.598-24.654 65.091-12.333 0 0-23.442 8.541-23.442 36.778 0 0 36.667 1.796 67.527 32.656 0 0-29.129 3.086-35.786 22.759-.002 0 31.375 1.487 52.316 22.428z"/>
    <path style="fill:#e2af66" d="m228.566 116.824-20.94 22.042c-9.919 23.144-32.722 24.831-32.722 24.831-17.766 5.07-47.733-22.626-47.733-22.626 61.167-9.368 68.662-50.455 68.662-50.455-19.254-8.464-43.798 8.145-44.404 8.563 29.757-50.686 82.659-41.991 82.659-41.991s24.07 5.026 35.642 16.598c0 0-.263.012-.749.048-20.536 1.536-37.123 17.386-39.749 37.81l-.666 5.18z"/>
    <path style="fill:#666" d="M461.408 377.37v10.318H430.81v-8.02c0-10.506-8.517-19.025-19.025-19.025h-33.066c-10.506 0-19.025 8.517-19.025 19.025v69.266h24.565v54.251h23.511v-54.251h23.039v-27.165h30.598v10.318h30.397v-54.716h-30.397v-.001z"/>
    <path d="M309.67 277.241c-13.425 13.426-35.272 13.428-48.699 0a8.266 8.266 0 0 0-11.69 11.689c9.937 9.937 22.988 14.904 36.039 14.904 13.052 0 26.105-4.968 36.04-14.904a8.266 8.266 0 0 0-11.69-11.689zM190.33 320.333c-20.915 12.699-33.402 34.869-33.402 59.306v43.641c0 4.565 3.7 8.266 8.266 8.266s8.266-3.701 8.266-8.266v-43.64c0-18.611 9.515-35.499 25.45-45.175a8.267 8.267 0 0 0-8.58-14.132zM361.467 475.402H173.461v-24.569c0-4.565-3.7-8.266-8.266-8.266a8.266 8.266 0 0 0-8.266 8.266v32.835c0 4.565 3.7 8.266 8.266 8.266h196.271a8.266 8.266 0 0 0 8.266-8.266 8.265 8.265 0 0 0-8.265-8.266zM380.309 320.334a8.266 8.266 0 0 0-11.355 2.775 8.266 8.266 0 0 0 2.775 11.356 53.168 53.168 0 0 1 11.81 9.757 8.245 8.245 0 0 0 6.13 2.718 8.234 8.234 0 0 0 5.546-2.139 8.265 8.265 0 0 0 .579-11.675 69.627 69.627 0 0 0-15.485-12.792zM325.693 353.849c0 22.258-18.109 40.367-40.367 40.367-22.258 0-40.368-18.109-40.368-40.367 0-4.565-3.7-8.266-8.266-8.266a8.266 8.266 0 0 0-8.266 8.266c0 31.374 25.525 56.899 56.9 56.899 31.374 0 56.899-25.525 56.899-56.899 0-4.565-3.7-8.266-8.266-8.266s-8.266 3.701-8.266 8.266z"/>
    <path d="M150.24 169.211c-8.426 6.189-13.908 16.161-13.908 27.394a33.91 33.91 0 0 0 24.002 32.5c-1.308 30.508 12.845 60.103 37.693 78.151l45.242 32.865c12.575 9.139 27.309 13.707 42.05 13.706 14.738-.001 29.48-4.569 42.06-13.706l45.242-32.866c24.844-18.052 38.993-47.648 37.684-78.152a33.91 33.91 0 0 0 24.006-32.498c0-14.292-8.878-26.543-21.406-31.555 11.785-5.969 29.956-4.221 30.187-4.195a8.264 8.264 0 0 0 6.784-14.057c-13.778-13.778-34.852-21.137-49.698-24.844 12.273-6.285 26.973-6.245 27.199-6.234a8.261 8.261 0 0 0 7.736-5.045 8.268 8.268 0 0 0-1.768-9.064c-23.914-23.914-50.957-31.559-64.434-33.974 3.205-16.232 16.738-21.618 17.331-21.847a8.265 8.265 0 0 0-.79-15.779c-33.491-8.514-53.723-.687-64.37 6.659-5.617-15.038-4.411-27.339-4.399-27.456a8.265 8.265 0 0 0-12.278-8.144c-14.927 8.437-21.776 19.474-24.88 28.508-14.18-9.857-40.775-22.407-79.263-16.25a8.263 8.263 0 0 0-6.892 7.146 8.275 8.275 0 0 0 4.947 8.616c.075.033 7.667 3.323 15.025 8.977 3.636 2.794 7.698 6.543 10.306 10.86a97.518 97.518 0 0 0-21.157 2.772c-17.009 4.179-40.816 15.181-57.647 43.858a8.26 8.26 0 0 0 1.492 10.219 8.274 8.274 0 0 0 10.309.781c4.796-3.272 17.585-9.986 28.893-9.488-5.267 10.838-20.014 30.4-59.066 36.381a8.265 8.265 0 0 0-5.307 13.201c.68.888 12.004 15.403 29.075 22.56zm146.827-7.835c-.044-.185-3.371-14.492-4.912-32.986 20.532 15.341 59.749 41.611 96.739 49.495l.693 7.18-18.038 9.714c-5.059-16.128-20.143-27.863-37.918-27.863-19.072 0-35.044 13.512-38.859 31.464h-20.751c-3.814-17.952-19.786-31.464-38.86-31.464-17.462 0-32.318 11.33-37.633 27.019l-16.471-8.87 1.355-14.013c10.455-3.018 33.1-11.991 47.33-35.547 10.002 15.062 29.311 36.034 59.277 36.034a8.264 8.264 0 0 0 6.48-3.137 8.26 8.26 0 0 0 1.568-7.026zm59.763 45.27c0 12.791-10.406 23.198-23.198 23.198s-23.198-10.406-23.198-23.198 10.406-23.198 23.198-23.198 23.198 10.407 23.198 23.198zm-75.917 8.266h8.817v34.714a4.412 4.412 0 0 1-4.408 4.408 4.412 4.412 0 0 1-4.408-4.408v-34.714h-.001zm-68.948-8.293c.015-12.779 10.414-23.171 23.197-23.171 12.791 0 23.198 10.406 23.198 23.198s-10.406 23.198-23.198 23.198c-12.789 0-23.194-10.403-23.198-23.192l.001-.033zm-59.101-10.014c0-7.745 5.076-14.32 12.075-16.591l-3.082 31.862a17.411 17.411 0 0 1-8.993-15.271zm210.041 97.276-45.241 32.865c-19.351 14.052-45.342 14.052-64.678 0l-45.244-32.866c-21.444-15.574-33.179-41.639-30.63-68.023l2.219-22.945 16.44 8.853c2.522 19.495 19.219 34.61 39.389 34.61 11.546 0 21.953-4.954 29.219-12.844v16.094c0 11.547 9.393 20.94 20.94 20.94s20.94-9.393 20.94-20.94v-14.223c7.132 6.791 16.769 10.973 27.37 10.973 19.8 0 36.261-14.56 39.244-33.535l18.435-9.928 2.215 22.945c2.552 26.383-9.181 52.448-30.618 68.024zm45.879-82.007-3.075-31.857c6.996 2.275 12.071 8.847 12.071 16.588a17.409 17.409 0 0 1-8.996 15.269zM204.518 92.646a8.264 8.264 0 0 0-4.803-9.049c-6.092-2.68-13.073-3.608-20.632-2.795 24.782-19.192 52.726-15.142 54.211-14.908a8.268 8.268 0 0 0 9.606-8.157c0-12.098-7.167-21.951-15.289-29.233 33.368 2.487 50.653 21.264 51.503 22.212 2.367 2.694 6.207 3.598 9.498 2.171 3.291-1.426 5.291-4.767 4.944-8.336-.04-.538-.617-10.169 7.437-19.733 1.267 8.307 4.084 18.765 10.111 29.56a8.27 8.27 0 0 0 6.873 4.23 8.284 8.284 0 0 0 7.201-3.642c.112-.165 10.158-13.672 37.746-11.952-6.003 6.946-11.224 17.184-11.224 31.787 0 4.389 3.455 8.013 7.836 8.255.283.015 24.1 1.547 48.339 18.646-11.104 2.738-24.372 8.449-32.762 20.345a8.268 8.268 0 0 0 5.78 12.972c.096.011 9.742 1.181 21.845 4.779 5.878 1.747 11.281 3.754 16.139 5.982-9.988 2.115-20.492 6.619-26.827 15.889-47.908-10.33-103.011-56.72-103.585-57.206a8.26 8.26 0 0 0-8.821-1.199 8.267 8.267 0 0 0-4.794 7.5c0 16.968 2.127 32.839 3.876 43.017-27.83-6.773-41.836-39.233-41.991-39.599a8.224 8.224 0 0 0-7.882-5.066 8.266 8.266 0 0 0-7.555 5.568c-11.979 34.753-45.834 41.167-47.239 41.419a7.68 7.68 0 0 0-.161.029c-11.448 2.188-22.103-3.7-29.471-9.573 52.213-14.158 59.771-52.16 60.091-53.913z"/>
    <path d="M32.502 374.014h-4.593v-72.886h138.316a8.266 8.266 0 0 0 8.266-8.266 8.253 8.253 0 0 0-3.72-6.899l.047-.047-34.015-34.016h8.481c4.566 0 8.266-3.701 8.266-8.266s-3.7-8.266-8.266-8.266H19.643a8.266 8.266 0 0 0-8.266 8.266V382.28c0 4.565 3.7 8.266 8.266 8.266h12.858a8.266 8.266 0 0 0 8.266-8.266 8.264 8.264 0 0 0-8.265-8.266zM27.909 263.59l21.005 21.006H27.909V263.59zm11.69-11.69h25.222l32.696 32.696H72.295L39.599 251.9zm106.521 32.697h-25.222L88.202 251.9h25.223l32.695 32.697z"/>
    <path d="M141.61 374.014H60.055a8.266 8.266 0 0 0-8.266 8.266c0 4.565 3.7 8.266 8.266 8.266h81.555a8.266 8.266 0 0 0 8.266-8.266c0-4.565-3.7-8.266-8.266-8.266zM52.707 312.517c-4.566 0-8.266 3.701-8.266 8.266s3.7 8.266 8.266 8.266h27.92c4.566 0 8.266-3.701 8.266-8.266s-3.7-8.266-8.266-8.266h-27.92zM80.627 357.703a8.266 8.266 0 0 0 8.266-8.266c0-4.565-3.7-8.266-8.266-8.266h-27.92a8.266 8.266 0 0 0-8.266 8.266c0 4.565 3.7 8.266 8.266 8.266h27.92zM492.356 369.654h-30.397a8.266 8.266 0 0 0-8.266 8.266v2.052h-14.072c-.133-14.935-12.318-27.045-27.284-27.045H379.27c-15.047 0-27.291 12.242-27.291 27.291v69.266c0 4.565 3.7 8.266 8.266 8.266h16.299v45.985c0 4.565 3.7 8.266 8.266 8.266h23.511a8.266 8.266 0 0 0 8.266-8.266V457.75h14.773a8.266 8.266 0 0 0 8.266-8.266v-18.899h14.066v2.052c0 4.565 3.7 8.266 8.266 8.266h30.397a8.266 8.266 0 0 0 8.266-8.266v-54.716a8.264 8.264 0 0 0-8.265-8.267zm-92.3 125.814h-6.98v-37.719h6.98v37.719zm23.04-54.251h-54.583v-61c0-5.933 4.826-10.759 10.759-10.759h33.067c5.933 0 10.759 4.826 10.759 10.759V441.217h-.002zm16.532-27.166v-17.548h14.066v17.548h-14.066zm44.462 10.318h-13.866v-38.184h13.866v38.184z"/>
    <circle cx="333.633" cy="206.646" r="8.266"/>
    <circle cx="235.159" cy="206.646" r="8.266"/>
    <circle cx="382.787" cy="387.283" r="8.266"/>
    <circle cx="382.787" cy="412.621" r="8.266"/>
</svg>
